<svg width="36" height="36" viewBox="0 0 36 36" fill="none" xmlns="http://www.w3.org/2000/svg">
<g clip-path="url(#clip0_4_50)">
<path d="M10.5 13.5H3V10.5H10.5V13.5ZM10.5 18H3V21H10.5V18ZM30.885 28.5L25.14 22.755C23.94 23.535 22.53 24 21 24C16.86 24 13.5 20.64 13.5 16.5C13.5 12.36 16.86 9 21 9C25.14 9 28.5 12.36 28.5 16.5C28.5 18.03 28.035 19.44 27.255 20.625L33 26.385L30.885 28.5ZM25.5 16.5C25.5 14.025 23.475 12 21 12C18.525 12 16.5 14.025 16.5 16.5C16.5 18.975 18.525 21 21 21C23.475 21 25.5 18.975 25.5 16.5ZM3 28.5H18V25.5H3V28.5Z" fill="white"/>
</g>
<defs>
<clipPath id="clip0_4_50">
<rect width="36" height="36" fill="white"/>
</clipPath>
</defs>
</svg>
