<svg width="59" height="45" viewBox="0 0 59 45" fill="none" xmlns="http://www.w3.org/2000/svg">
<path d="M34.0499 21.6667L29.9999 8.33337L25.9499 21.6667H13.3333L23.6333 29.0167L19.7166 41.6667L29.9999 33.85L40.2999 41.6667L36.3833 29.0167L46.6666 21.6667H34.0499Z" fill="#FFC700"/>
<path d="M50.1072 9.97122L49.8453 3.70601L46.5783 9.05845L41.0817 7.63671L44.7408 11.9995L41.609 17.0693L46.9699 14.8227L50.5763 19.3888L50.2955 13.4363L55.6038 11.393L50.1072 9.97122Z" fill="#FFC700"/>
<path d="M8.82688 9.97122L9.08882 3.70601L12.3557 9.05845L17.8524 7.63671L14.1933 11.9995L17.3251 17.0693L11.9642 14.8227L8.35775 19.3888L8.63859 13.4363L3.33028 11.393L8.82688 9.97122Z" fill="#FFC700"/>
</svg>
